<svg xmlns="http://www.w3.org/2000/svg" width="580" height="580" version="1.0"><metadata id="metadata2975"/><path id="path4136" fill="none" stroke="#fff" stroke-linejoin="round" stroke-width="64" d="m 76,124 c 0,0 -11,85 2,172 7,43 20,86 44,120 25,33 61,56 112,56 l 28,0 c 51.51511,-5.744 85.58808,-23.28584 117,-65 13,-1 15.89175,-1.19638 36,-5 28.75421,-7.40611 86.74641,-36.73875 112,-88 18.7349,-54.09102 18.31184,-115.43724 -17,-155 -10,-10 -25,-19 -42,-19 l -1,0 0,0 c -17,1 -31,5 -45,11 -1,-17 -3,-27 -3,-27 0,-5 -4,-8 -9,-8 l -324,0 c -5,0 -9,3 -10,8 z m 412,85 0,0 c 7.4375,29.47253 9.30868,62.16521 -2,85 l 0,1 0,0 c -14,31 -46,54 -80,62 -7.02179,6.00578 9.19723,-48.68941 11,-61 5,-34 7,-67 7,-95 15,-8 30,-14 44,-15 10.6253,1.74638 16.23838,14.33425 20,23 z" color="#000" color-interpolation="sRGB" color-interpolation-filters="linearRGB" color-rendering="auto" filter-blend-mode="normal" filter-gaussianBlur-deviation="0" image-rendering="auto" isolation="auto" mix-blend-mode="normal" opacity=".8" shape-rendering="auto" solid-color="#000000" solid-opacity="1" white-space="normal"/><path id="path3407" fill="#734a08" fill-rule="evenodd" d="m 76,124 c 0,0 -11,85 2,172 7,43 20,86 44,120 25,33 61,56 112,56 l 28,0 c 51.51511,-5.744 85.58808,-23.28584 117,-65 13,-1 15.89175,-1.19638 36,-5 28.75421,-7.40611 86.74641,-36.73875 112,-88 18.7349,-54.09102 18.31184,-115.43724 -17,-155 -10,-10 -25,-19 -42,-19 l -1,0 0,0 c -17,1 -31,5 -45,11 -1,-17 -3,-27 -3,-27 0,-5 -4,-8 -9,-8 l -324,0 c -5,0 -9,3 -10,8 z m 412,85 0,0 c 7.4375,29.47253 9.30868,62.16521 -2,85 l 0,1 0,0 c -14,31 -46,54 -80,62 -7.02179,6.00578 9.19723,-48.68941 11,-61 5,-34 7,-67 7,-95 15,-8 30,-14 44,-15 10.6253,1.74638 16.23838,14.33425 20,23 z" color="#000" color-interpolation="sRGB" color-interpolation-filters="linearRGB" color-rendering="auto" image-rendering="auto" isolation="auto" mix-blend-mode="normal" shape-rendering="auto" solid-color="#000000" solid-opacity="1" white-space="normal"/></svg>