<svg xmlns="http://www.w3.org/2000/svg" width="580" height="580" version="1.0"><metadata id="metadata2975"/><path id="path4142" fill="none" stroke="#fff" stroke-linejoin="round" stroke-width="64" d="m 475,186 -159,0 38,303 130,0 38.8,-303 -29.4,0 30.5,-105 -18.05,-5.15 z" color="#000" color-interpolation="sRGB" color-interpolation-filters="linearRGB" color-rendering="auto" filter-blend-mode="normal" filter-gaussianBlur-deviation="0" image-rendering="auto" isolation="auto" mix-blend-mode="normal" opacity=".8" shape-rendering="auto" solid-color="#000000" solid-opacity="1"/><path id="path4144" fill="none" stroke="#fff" stroke-linejoin="round" stroke-width="64" d="m 235,318.4 -107,0 C 83.4,320.7 62,335.6 65.2,363 l 232.4,0 c 2.5,-27.4 -18.2,-42 -62.6,-44.6 z" color="#000" color-interpolation="sRGB" color-interpolation-filters="linearRGB" color-rendering="auto" filter-blend-mode="normal" filter-gaussianBlur-deviation="0" image-rendering="auto" isolation="auto" mix-blend-mode="normal" opacity=".8" shape-rendering="auto" solid-color="#000000" solid-opacity="1"/><path id="path4146" fill="none" stroke="#fff" stroke-linejoin="round" stroke-width="64" d="m 128,489 108,0 c 44.6,-2 65,-16.6 62,-44 l -232.9,0 c -2.6,27.4 18.3,42 62.9,44 z" color="#000" color-interpolation="sRGB" color-interpolation-filters="linearRGB" color-rendering="auto" filter-blend-mode="normal" filter-gaussianBlur-deviation="0" image-rendering="auto" isolation="auto" mix-blend-mode="normal" opacity=".8" shape-rendering="auto" solid-color="#000000" solid-opacity="1"/><path id="path4148" fill="none" stroke="#fff" stroke-linejoin="round" stroke-width="64" d="m 75,384 c -5.5,0 -10.2,2 -14,5.9 -3.9,3.9 -5.9,8.4 -5.9,13.5 0,5.9 2,10.7 5.9,14.4 3.9,3.7 8.6,5.6 14,5.6 l 213,0 c 5.5,0 10.2,-1.9 14,-5.6 3.9,-3.7 5.9,-8.5 5.9,-14.4 0,-5.1 -2,-9.6 -5.9,-13.5 -3.9,-3.9 -8.6,-5.9 -14,-5.9 z" color="#000" color-interpolation="sRGB" color-interpolation-filters="linearRGB" color-rendering="auto" filter-blend-mode="normal" filter-gaussianBlur-deviation="0" image-rendering="auto" isolation="auto" mix-blend-mode="normal" opacity=".8" shape-rendering="auto" solid-color="#000000" solid-opacity="1"/><path id="path4140" fill="#734a08" d="m 475,186 -159,0 38,303 130,0 38.8,-303 -29.4,0 30.5,-105 -18.05,-5.15 z"/><path id="path4138" fill="#734a08" d="m 235,318.4 -107,0 C 83.4,320.7 62,335.6 65.2,363 l 232.4,0 c 2.5,-27.4 -18.2,-42 -62.6,-44.6 z"/><path id="path4136" fill="#734a08" d="m 128,489 108,0 c 44.6,-2 65,-16.6 62,-44 l -232.9,0 c -2.6,27.4 18.3,42 62.9,44 z"/><path id="flowRoot3192" fill="#734a08" d="m 75,384 c -5.5,0 -10.2,2 -14,5.9 -3.9,3.9 -5.9,8.4 -5.9,13.5 0,5.9 2,10.7 5.9,14.4 3.9,3.7 8.6,5.6 14,5.6 l 213,0 c 5.5,0 10.2,-1.9 14,-5.6 3.9,-3.7 5.9,-8.5 5.9,-14.4 0,-5.1 -2,-9.6 -5.9,-13.5 -3.9,-3.9 -8.6,-5.9 -14,-5.9 z"/></svg>