<svg xmlns="http://www.w3.org/2000/svg" width="580" height="580" version="1.0"><metadata id="metadata2975"/><path id="path4138" fill="none" fill-rule="evenodd" stroke="#fff" stroke-linejoin="round" stroke-width="64" d="M 481,269 472,66 c 0,-3.9 -3.1,-7 -7,-7 l -4.6,0 c -3.9,0 -7,3.1 -7,7 l 3.3,203 -20.3,0 -5.1,-205 c 0,-3.9 -3.1,-7 -7,-7 l -6,0 c -3.9,0 -7,3.1 -7,7 l 2.8,205 -25,0 2.8,-205 c 0,-3.9 -3.1,-7 -7,-7 l -6,0 c -3.9,0 -7,3.1 -7,7 l -5.1,205 -19.8,0 3.3,-203 c 0,-3.9 -3.1,-7 -7,-7 l -4.6,0 c -3.9,0 -7,3.1 -7,7 L 321,269 c 0,60 13.7,82 51,100 l -7.8,147 74,0 -8,-146.5 C 467.6,351.5 481,329.1 481,269 Z M 268.9,211 c 0,-74 -61.8,-155 -94,-155 -32,0 -94,81 -94,155 0,60 27,110 64.9,128 l -7.8,177 74,0 -7.9,-176.5 c 37.5,-18 64.8,-68.5 64.8,-128.5 z" color="#000" color-interpolation="sRGB" color-interpolation-filters="linearRGB" color-rendering="auto" filter-blend-mode="normal" filter-gaussianBlur-deviation="0" image-rendering="auto" isolation="auto" mix-blend-mode="normal" opacity=".8" shape-rendering="auto" solid-color="#000000" solid-opacity="1"/><path id="path2112" fill="#734a08" d="M 481,269 472,66 c 0,-3.9 -3.1,-7 -7,-7 l -4.6,0 c -3.9,0 -7,3.1 -7,7 l 3.3,203 -20.3,0 -5.1,-205 c 0,-3.9 -3.1,-7 -7,-7 l -6,0 c -3.9,0 -7,3.1 -7,7 l 2.8,205 -25,0 2.8,-205 c 0,-3.9 -3.1,-7 -7,-7 l -6,0 c -3.9,0 -7,3.1 -7,7 l -5.1,205 -19.8,0 3.3,-203 c 0,-3.9 -3.1,-7 -7,-7 l -4.6,0 c -3.9,0 -7,3.1 -7,7 L 321,269 c 0,60 13.7,82 51,100 l -7.8,147 74,0 -8,-146.5 C 467.6,351.5 481,329.1 481,269 Z M 268.9,211 c 0,-74 -61.8,-155 -94,-155 -32,0 -94,81 -94,155 0,60 27,110 64.9,128 l -7.8,177 74,0 -7.9,-176.5 c 37.5,-18 64.8,-68.5 64.8,-128.5 z"/></svg>