<svg xmlns="http://www.w3.org/2000/svg" width="580" height="580" version="1.0"><metadata id="metadata10"/><path id="path4137" fill="none" stroke="#fff" stroke-linejoin="round" stroke-width="64" d="m 459.1,103.5 c -5.4,4.9 -8.9,12.4 -8.75,16.95 l 5.45,253.55 -43,26.8 15.9,76 30.5,0.1 c 0,-3.1 0.3,-39.8 0.4,-52 l 18.9,-10.4 18.7,10.6 -0.4,52 28.8,0.2 14.2,-76 -40.9,-28 9.45,-252 c 0.05,-5 -3.55,-12.9 -9.15,-17.9 -5.6,-5.1 -12.9,-7.4 -20.1,-7.35 -7.3,0.05 -14.5,2.55 -20,7.45 z m 29.3,20.1 c 0,4.8 -3.9,8.6 -8.7,8.6 -4.8,0 -8.6,-3.9 -8.6,-8.7 0,-4.8 3.9,-8.6 8.7,-8.6 4.8,0 8.6,3.9 8.6,8.7 z" color="#000" color-interpolation="sRGB" color-interpolation-filters="linearRGB" color-rendering="auto" filter-blend-mode="normal" filter-gaussianBlur-deviation="0" image-rendering="auto" isolation="auto" mix-blend-mode="normal" opacity=".8" shape-rendering="auto" solid-color="#000000" solid-opacity="1" white-space="normal"/><path id="path4139" fill="none" stroke="#fff" stroke-linejoin="round" stroke-width="64" d="m 103,184 -27,71 c -11,2 -31,15 -31,39 l 0,91 27,0 0,29 c 0,36 51,36 51,0 l 0,-29 182,0 0,29 c 0,36 51,36 51,0 l 0,-29 27,0 0,-91 c 0,-24 -19,-37 -30,-39 l -28,-71 c -5,-14 -17,-26 -38,-26 -48.66667,0 -97.33333,0 -146,0 -21,0 -32,12 -38,26 z m 184,1 c 9,0 13,5 16,13 l 21,57 -220,0 21,-57 c 3,-8 7,-13 16,-13 48.66667,0 97.33333,0 146,0 z M 122,306 c 0,14 -11,24 -24,24 -13,0 -23,-10 -23,-24 0,-13 10,-24 23,-24 13,0 24,11 24,24 z m 231,0 c 0,14 -10,24 -23,24 -13,0 -24,-10 -24,-24 0,-13 11,-24 24,-24 13,0 23,11 23,24 z" color="#000" color-interpolation="sRGB" color-interpolation-filters="linearRGB" color-rendering="auto" filter-blend-mode="normal" filter-gaussianBlur-deviation="0" image-rendering="auto" isolation="auto" mix-blend-mode="normal" opacity=".8" shape-rendering="auto" solid-color="#000000" solid-opacity="1"/><path id="path2303" fill="#ac39ac" d="m 459.1,103.5 c -5.4,4.9 -8.9,12.4 -8.75,16.95 l 5.45,253.55 -43,26.8 15.9,76 30.5,0.1 c 0,-3.1 0.3,-39.8 0.4,-52 l 18.9,-10.4 18.7,10.6 -0.4,52 28.8,0.2 14.2,-76 -40.9,-28 9.45,-252 c 0.05,-5 -3.55,-12.9 -9.15,-17.9 -5.6,-5.1 -12.9,-7.4 -20.1,-7.35 -7.3,0.05 -14.5,2.55 -20,7.45 z m 29.3,20.1 c 0,4.8 -3.9,8.6 -8.7,8.6 -4.8,0 -8.6,-3.9 -8.6,-8.7 0,-4.8 3.9,-8.6 8.7,-8.6 4.8,0 8.6,3.9 8.6,8.7 z" color="#000" color-interpolation="sRGB" color-interpolation-filters="linearRGB" color-rendering="auto" image-rendering="auto" isolation="auto" mix-blend-mode="normal" shape-rendering="auto" solid-color="#000000" solid-opacity="1" white-space="normal"/><path id="path2301" fill="#ac39ac" d="m 103,184 -27,71 c -11,2 -31,15 -31,39 l 0,91 27,0 0,29 c 0,36 51,36 51,0 l 0,-29 182,0 0,29 c 0,36 51,36 51,0 l 0,-29 27,0 0,-91 c 0,-24 -19,-37 -30,-39 l -28,-71 c -5,-14 -17,-26 -38,-26 -48.66667,0 -97.33333,0 -146,0 -21,0 -32,12 -38,26 z m 184,1 c 9,0 13,5 16,13 l 21,57 -220,0 21,-57 c 3,-8 7,-13 16,-13 48.66667,0 97.33333,0 146,0 z M 122,306 c 0,14 -11,24 -24,24 -13,0 -23,-10 -23,-24 0,-13 10,-24 23,-24 13,0 24,11 24,24 z m 231,0 c 0,14 -10,24 -23,24 -13,0 -24,-10 -24,-24 0,-13 11,-24 24,-24 13,0 23,11 23,24 z"/></svg>