<svg xmlns="http://www.w3.org/2000/svg" width="580" height="580" version="1.0"><metadata id="metadata2975"/><path id="path4136" fill="none" stroke="#fff" stroke-linejoin="round" stroke-width="64" d="m 264.3,53.5 c -7.9,7 -13,18 -13,24.2 l 0,135.2 -192,117 c -6,3.6 -9.6,10 -9.6,17 l 0,52.7 c 0,13.6 13.3,23.3 26.3,19 l 178,-58 0,73 -39.8,31.4 c -3.6,2.8 -5.7,7.2 -5.7,11.8 l 0,41.7 c 0,10 9.8,17.3 19.4,14.3 L 293,513 l 67,21 c 9.6,3 19.4,-4.2 19.4,-14.3 l 0,-41.7 c 0,-4.6 -2.1,-9 -5.8,-11.8 l -40,-31.4 0,-73 178,58 c 12.9,4.3 26,-5.4 26.3,-19 l 0,-52.7 c 0,-7 -3.7,-13.5 -9.7,-17 l -195,-117 0,-128 c 0,-12.4 -5,-23.6 -12.9,-30.8 -7.9,-7.2 -17.8,-10.5 -27.95,-11.2 -10.15,-0.7 -20.15,2.4 -28.05,9.4 z" color="#000" color-interpolation="sRGB" color-interpolation-filters="linearRGB" color-rendering="auto" filter-blend-mode="normal" filter-gaussianBlur-deviation="0" image-rendering="auto" isolation="auto" mix-blend-mode="normal" opacity=".8" shape-rendering="auto" solid-color="#000000" solid-opacity="1" white-space="normal"/><path id="path7852" fill="#0092da" d="m 264.3,53.5 c -7.9,7 -13,18 -13,24.2 l 0,135.2 -192,117 c -6,3.6 -9.6,10 -9.6,17 l 0,52.7 c 0,13.6 13.3,23.3 26.3,19 l 178,-58 0,73 -39.8,31.4 c -3.6,2.8 -5.7,7.2 -5.7,11.8 l 0,41.7 c 0,10 9.8,17.3 19.4,14.3 L 293,513 l 67,21 c 9.6,3 19.4,-4.2 19.4,-14.3 l 0,-41.7 c 0,-4.6 -2.1,-9 -5.8,-11.8 l -40,-31.4 0,-73 178,58 c 12.9,4.3 26,-5.4 26.3,-19 l 0,-52.7 c 0,-7 -3.7,-13.5 -9.7,-17 l -195,-117 0,-128 c 0,-12.4 -5,-23.6 -12.9,-30.8 -7.9,-7.2 -17.8,-10.5 -27.95,-11.2 -10.15,-0.7 -20.15,2.4 -28.05,9.4 z" color="#000" color-interpolation="sRGB" color-interpolation-filters="linearRGB" color-rendering="auto" image-rendering="auto" isolation="auto" mix-blend-mode="normal" shape-rendering="auto" solid-color="#000000" solid-opacity="1" white-space="normal"/></svg>