<svg xmlns="http://www.w3.org/2000/svg" width="580" height="580" version="1.0"><metadata id="metadata1976"/><path id="path4138" fill="none" stroke="#fff" stroke-linejoin="round" stroke-width="64" d="m 118,187.2 198,9.2 -0.7,31.9 c -15.2,1.5 -32,13.3 -45.9,19 -66,6.3 -139,10.8 -199,7.1 -4.8,-12.6 -9.4,-25.5 -14.2,-38 -5.4,-9 -25.7,-3.5 -22,5.9 6,12.5 11.9,25.6 18,38 -17.8,16.6 -8,41.5 17.2,42.5 l 13.5,38 c 8.6,9.8 27,2.2 22,-7.2 -5.9,-10.3 -10.7,-21.7 -15.8,-33 60,4 140,38 193,56 52,17.5 88,17.8 117,14.5 29.4,-3.3 52.6,-8.2 61.8,-28 14,-56 -45.6,-94 -90,-102 -11,-5.3 -27,-11.9 -40.9,-12.3 l 0.7,-31.9 202,-10.8 c 3.7,0.6 9,-8.7 12.9,-13.2 2.1,-2.4 0.2,-6 -3,-5.8 l -222,17.9 -214,-19 c -2.8,0.8 -4.1,3.2 -2.05,5.25 3.35,4.65 7.45,15.35 13.45,15.95 z M 53.8,280 c -0.4,-7.2 4.6,-13.8 14.2,-13.9 9.6,-0.1 17.3,14.8 9.2,22.4 -7.4,8.9 -23.6,2.9 -23.4,-8.5 z m 330.4,41.1 c -9.1,-18.4 -18.9,-36 -27.9,-54 39,-1.3 71,15.9 77.9,54.05 -17.3,0.35 -33,0.05 -50,-0.05 z m -83,2 c -0.2,-13.3 -0.6,-40.5 -0.9,-53.9 8.7,-0.1 17.9,-0.1 26.6,-0.3 10.7,17.2 16.6,35.8 23.35,53.95 -15.75,0.05 -34.05,0.35 -49.05,0.25 z m -42.9,65.7 c -19,2.8 -13.9,25.4 0,25.6 l 184,0 c 19,-2.8 13.9,-25.4 0,-25.6 z" color="#000" color-interpolation="sRGB" color-interpolation-filters="linearRGB" color-rendering="auto" filter-blend-mode="normal" filter-gaussianBlur-deviation="0" image-rendering="auto" isolation="auto" mix-blend-mode="normal" opacity=".8" shape-rendering="auto" solid-color="#000000" solid-opacity="1" white-space="normal"/><path id="path4290" fill="#0092da" d="m 118,187.2 198,9.2 -0.7,31.9 c -15.2,1.5 -32,13.3 -45.9,19 -66,6.3 -139,10.8 -199,7.1 -4.8,-12.6 -9.4,-25.5 -14.2,-38 -5.4,-9 -25.7,-3.5 -22,5.9 6,12.5 11.9,25.6 18,38 -17.8,16.6 -8,41.5 17.2,42.5 l 13.5,38 c 8.6,9.8 27,2.2 22,-7.2 -5.9,-10.3 -10.7,-21.7 -15.8,-33 60,4 140,38 193,56 52,17.5 88,17.8 117,14.5 29.4,-3.3 52.6,-8.2 61.8,-28 14,-56 -45.6,-94 -90,-102 -11,-5.3 -27,-11.9 -40.9,-12.3 l 0.7,-31.9 202,-10.8 c 3.7,0.6 9,-8.7 12.9,-13.2 2.1,-2.4 0.2,-6 -3,-5.8 l -222,17.9 -214,-19 c -2.8,0.8 -4.1,3.2 -2.05,5.25 3.35,4.65 7.45,15.35 13.45,15.95 z M 53.8,280 c -0.4,-7.2 4.6,-13.8 14.2,-13.9 9.6,-0.1 17.3,14.8 9.2,22.4 -7.4,8.9 -23.6,2.9 -23.4,-8.5 z m 330.4,41.1 c -9.1,-18.4 -18.9,-36 -27.9,-54 39,-1.3 71,15.9 77.9,54.05 -17.3,0.35 -33,0.05 -50,-0.05 z m -83,2 c -0.2,-13.3 -0.6,-40.5 -0.9,-53.9 8.7,-0.1 17.9,-0.1 26.6,-0.3 10.7,17.2 16.6,35.8 23.35,53.95 -15.75,0.05 -34.05,0.35 -49.05,0.25 z m -42.9,65.7 c -19,2.8 -13.9,25.4 0,25.6 l 184,0 c 19,-2.8 13.9,-25.4 0,-25.6 z" color="#000" color-interpolation="sRGB" color-interpolation-filters="linearRGB" color-rendering="auto" image-rendering="auto" isolation="auto" mix-blend-mode="normal" shape-rendering="auto" solid-color="#000000" solid-opacity="1" white-space="normal"/></svg>