<svg xmlns="http://www.w3.org/2000/svg" width="580" height="580" version="1.0"><metadata id="metadata10"/><path id="path4151" fill="none" stroke="#fff" stroke-linejoin="round" stroke-width="64" d="M 155 122.65039 C 148.73213 122.65123 143.65123 127.73213 143.65039 134 L 143.65039 495 C 143.65057 500.20836 147.1943 504.74915 151.29688 505.59961 L 203.09961 506.44922 C 209.36748 506.44838 214.44838 501.36748 214.44922 495.09961 L 214.44922 359.44922 L 295.09961 359.44922 C 347.96309 359.44922 386.64341 348.79826 408.58203 324.65625 C 430.52066 300.51424 441.44922 271.31464 441.44922 238.19922 C 441.44922 219.053 437.50114 200.75892 429.39453 184.21094 C 421.38974 167.771 410.48947 154.46393 396.75586 144.96484 C 383.13572 135.54425 366.6782 129.43073 347.72266 126.21484 C 333.84133 123.82894 315.27992 122.65039 291 122.65039 L 155 122.65039 z M 214.55078 188.15039 L 295.19922 188.15039 C 316.3506 188.15039 331.116 189.50342 336.74805 190.9668 C 346.63722 193.71692 354.21034 199.01066 360.41797 207.83203 C 366.57577 216.58259 369.75 227.0165 369.75 240.09961 C 369.75 258.6052 364.52678 270.93379 354.21094 280.16406 C 344.12987 288.83869 325.01653 294.65039 295.69922 294.65039 L 214.55078 294.65039 L 214.55078 188.15039 z" color="#000" color-interpolation="sRGB" color-interpolation-filters="linearRGB" color-rendering="auto" filter-blend-mode="normal" filter-gaussianBlur-deviation="0" image-rendering="auto" isolation="auto" mix-blend-mode="normal" opacity=".8" shape-rendering="auto" solid-color="#000000" solid-opacity="1"/><path id="path4136" fill="#0092da" d="M 155 122.65039 C 148.73213 122.65123 143.65123 127.73213 143.65039 134 L 143.65039 495 C 143.65057 500.20836 147.1943 504.74915 151.29688 505.59961 L 203.09961 506.44922 C 209.36748 506.44838 214.44838 501.36748 214.44922 495.09961 L 214.44922 359.44922 L 295.09961 359.44922 C 347.96309 359.44922 386.64341 348.79826 408.58203 324.65625 C 430.52066 300.51424 441.44922 271.31464 441.44922 238.19922 C 441.44922 219.053 437.50114 200.75892 429.39453 184.21094 C 421.38974 167.771 410.48947 154.46393 396.75586 144.96484 C 383.13572 135.54425 366.6782 129.43073 347.72266 126.21484 C 333.84133 123.82894 315.27992 122.65039 291 122.65039 L 155 122.65039 z M 214.55078 188.15039 L 295.19922 188.15039 C 316.3506 188.15039 331.116 189.50342 336.74805 190.9668 C 346.63722 193.71692 354.21034 199.01066 360.41797 207.83203 C 366.57577 216.58259 369.75 227.0165 369.75 240.09961 C 369.75 258.6052 364.52678 270.93379 354.21094 280.16406 C 344.12987 288.83869 325.01653 294.65039 295.69922 294.65039 L 214.55078 294.65039 L 214.55078 188.15039 z"/></svg>