<svg xmlns="http://www.w3.org/2000/svg" width="580" height="580" version="1.0"><metadata id="metadata2975"/><path id="path4136" fill="none" fill-rule="evenodd" stroke="#fff" stroke-linejoin="round" stroke-width="64" d="M 222,160 122,132 c -1,2 -21,80 97,114 l 306,84 22,-82 -305,-84 55,-38 -19,-5 z M 43.8,247 261,307 c 3,-5 8,-10 13,-15 L 43.8,229 Z M 266,345 c 0,21 12,38 29,47 L 43.8,322 44.5,505 c 10.5,0 21.3,-3 30.5,-7 10,-4 21,-7 32,-7 11,0 22,3 31,7 10,4 20,7 31,7 11,0 21,-3 31,-7 9,-4 20,-7 31,-7 11,0 22,3 32,7 9,4 19,7 30,7 11,0 22,-3 31,-7 10,-4 20,-7 32,-7 11,0 22,3 31,7 9,4 20,7 31,7 11,0 21,-3 30,-7 10,-4 21,-7 32,-7 11,0 22,3 32,7 9,4 19,7 30,7 l 0,-46 -229,-63 c 41.84053,3.68633 55.38359,-30.27233 56,-51 0,-28 -23,-52 -51,-52 -29,0 -52,23 -52,52 z m 120,-3 130,35 4,-17 -138,-38 c 2,6 4,13 4,20 z m -46,3 c 0,12 -10,22 -22,22 -13,0 -23,-10 -23,-22 0,-12 10,-22 23,-22 12,0 22,10 22,22 z" color="#000" color-interpolation="sRGB" color-interpolation-filters="linearRGB" color-rendering="auto" filter-blend-mode="normal" filter-gaussianBlur-deviation="0" image-rendering="auto" isolation="auto" mix-blend-mode="normal" opacity=".8" shape-rendering="auto" solid-color="#000000" solid-opacity="1"/><path id="path5679" fill="#0092da" d="M 222,160 122,132 c -1,2 -21,80 97,114 l 306,84 22,-82 -305,-84 55,-38 -19,-5 z M 43.8,247 261,307 c 3,-5 8,-10 13,-15 L 43.8,229 Z M 266,345 c 0,21 12,38 29,47 L 43.8,322 44.5,505 c 10.5,0 21.3,-3 30.5,-7 10,-4 21,-7 32,-7 11,0 22,3 31,7 10,4 20,7 31,7 11,0 21,-3 31,-7 9,-4 20,-7 31,-7 11,0 22,3 32,7 9,4 19,7 30,7 11,0 22,-3 31,-7 10,-4 20,-7 32,-7 11,0 22,3 31,7 9,4 20,7 31,7 11,0 21,-3 30,-7 10,-4 21,-7 32,-7 11,0 22,3 32,7 9,4 19,7 30,7 l 0,-46 -229,-63 c 41.84053,3.68633 55.38359,-30.27233 56,-51 0,-28 -23,-52 -51,-52 -29,0 -52,23 -52,52 z m 120,-3 130,35 4,-17 -138,-38 c 2,6 4,13 4,20 z m -46,3 c 0,12 -10,22 -22,22 -13,0 -23,-10 -23,-22 0,-12 10,-22 23,-22 12,0 22,10 22,22 z"/></svg>